<?xml version="1.0" encoding="UTF-8"?>
<svg id="Camada_2" data-name="Camada 2" xmlns="http://www.w3.org/2000/svg" viewBox="0 0 15.88 15.92">
  <defs>
    <style>
      .cls-1, .cls-2 {
        fill: #231f20;
      }

      .cls-2 {
        fill-rule: evenodd;
      }
    </style>
  </defs>
  <g id="Camada_1-2" data-name="Camada 1">
    <g>
      <path class="cls-1" d="M4.49,13.18l.27.16c.99.59,2.12.9,3.26.9,3.52,0,6.38-2.86,6.38-6.38S11.53,1.49,8.02,1.49,1.64,4.35,1.64,7.86c0,1.16.32,2.3.93,3.31l.17.27-.64,2.38,2.39-.64ZM0,15.92l1.14-4.26c-.65-1.16-.99-2.47-.99-3.8C.15,3.53,3.68,0,8.02,0s7.86,3.53,7.86,7.86-3.53,7.86-7.86,7.86c-1.3,0-2.59-.33-3.74-.95l-4.28,1.15Z"/>
      <path class="cls-2" d="M10.94,8.96c-.32-.19-.74-.41-1.12-.25-.29.12-.48.58-.67.81-.1.12-.21.14-.36.08-1.1-.44-1.94-1.17-2.55-2.18-.1-.16-.08-.28.04-.43.18-.22.41-.46.46-.75.05-.29-.09-.63-.21-.89-.15-.33-.32-.8-.65-.99-.3-.17-.71-.07-.98.15-.47.38-.69.98-.69,1.57,0,.17.02.34.06.5.09.39.27.76.48,1.1.15.26.32.52.5.76.59.8,1.32,1.49,2.16,2.01.42.26.88.49,1.35.64.53.17,1,.36,1.57.25.6-.11,1.19-.48,1.43-1.06.07-.17.11-.36.07-.54-.08-.37-.59-.59-.89-.77"/>
    </g>
  </g>
</svg>